<svg width="16" height="15" viewBox="0 0 16 15" fill="none" xmlns="http://www.w3.org/2000/svg">
<path d="M5 1.1L16 0V11C16 11.7956 15.6839 12.5587 15.1213 13.1213C14.5587 13.6839 13.7956 14 13 14C12.2044 14 11.4413 13.6839 10.8787 13.1213C10.3161 12.5587 10 11.7956 10 11C10 10.2044 10.3161 9.44129 10.8787 8.87868C11.4413 8.31607 12.2044 8 13 8C13.77 8 14.47 8.29 15 8.76V4.04L6 5.04V12C6 12.7956 5.68393 13.5587 5.12132 14.1213C4.55871 14.6839 3.79565 15 3 15C2.20435 15 1.44129 14.6839 0.87868 14.1213C0.316071 13.5587 0 12.7956 0 12C0 11.2044 0.316071 10.4413 0.87868 9.87868C1.44129 9.31607 2.20435 9 3 9C3.77 9 4.47 9.29 5 9.76V1.1ZM6 2V4.03L15 3.04V1.09L6 2ZM5 12C5 11.4696 4.78929 10.9609 4.41421 10.5858C4.03914 10.2107 3.53043 10 3 10C2.46957 10 1.96086 10.2107 1.58579 10.5858C1.21071 10.9609 1 11.4696 1 12C1 12.5304 1.21071 13.0391 1.58579 13.4142C1.96086 13.7893 2.46957 14 3 14C3.53043 14 4.03914 13.7893 4.41421 13.4142C4.78929 13.0391 5 12.5304 5 12ZM15 11C15 10.4696 14.7893 9.96086 14.4142 9.58579C14.0391 9.21071 13.5304 9 13 9C12.4696 9 11.9609 9.21071 11.5858 9.58579C11.2107 9.96086 11 10.4696 11 11C11 11.5304 11.2107 12.0391 11.5858 12.4142C11.9609 12.7893 12.4696 13 13 13C13.5304 13 14.0391 12.7893 14.4142 12.4142C14.7893 12.0391 15 11.5304 15 11Z" fill="white"/>
</svg>
