<svg xmlns="http://www.w3.org/2000/svg" version="1.1" xmlns:xlink="http://www.w3.org/1999/xlink" width="1000" height="1000"><g clip-path="url(#SvgjsClipPath1522)"><rect width="1000" height="1000" fill="#ffffff"></rect><g transform="matrix(41.1764705882353,0,0,41.1764705882353,150,150)"><svg xmlns="http://www.w3.org/2000/svg" version="1.1" xmlns:xlink="http://www.w3.org/1999/xlink" width="17" height="17"><svg width="17" height="17" viewBox="0 0 17 17" fill="none" xmlns="http://www.w3.org/2000/svg">
  <mask id="mask0_2019_470" style="mask-type:luminance" maskUnits="userSpaceOnUse" x="0" y="0" width="17" height="17">
    <path d="M16.9999 16.9999L0 16.9999L0 1.192e-07L16.9999 1.192e-07L16.9999 16.9999Z" fill="white"></path>
  </mask>
  <g mask="url(#mask0_2019_470)">
    <path fill-rule="evenodd" clip-rule="evenodd" d="M4.24998 16.9999L16.9999 16.9999L16.9999 12.7499L16.9999 4.24998L12.7499 1.192e-07L12.7499 12.7499L0 12.7499L4.24998 16.9999ZM0 2.96929L0 8.49996L5.53067 8.49996L0 2.96929ZM8.49996 1.192e-07L3.04109 1.192e-07L8.49996 5.45885L8.49996 1.192e-07Z" fill="black"></path>
  </g>
</svg></svg></g></g><defs><clipPath id="SvgjsClipPath1522"><rect width="1000" height="1000" x="0" y="0" rx="350" ry="350"></rect></clipPath></defs></svg>