<svg width="20" height="20" viewBox="0 0 20 20" fill="none" xmlns="http://www.w3.org/2000/svg">
<path d="M3 15V10H8V15H3ZM4 11V14H7V11H4ZM10 4.5H15V6.5H10V4.5ZM2 18C1.46957 18 0.960859 17.7893 0.585786 17.4142C0.210714 17.0391 0 16.5304 0 16V2C0 1.46957 0.210714 0.960859 0.585786 0.585786C0.960859 0.210714 1.46957 0 2 0H16C16.5304 0 17.0391 0.210714 17.4142 0.585786C17.7893 0.960859 18 1.46957 18 2V8.17C17.5 8.06 17 8 16.5 8H16V2H2V16H10.17C10.34 16.72 10.63 17.39 11 18H2ZM8 3V8H3V3H8ZM7 7V4H4V7H7ZM16 9V10.5C17.0609 10.5 18.0783 10.9214 18.8284 11.6716C19.5786 12.4217 20 13.4391 20 14.5C20 15.32 19.75 16.08 19.33 16.71L18.24 15.62C18.41 15.28 18.5 14.9 18.5 14.5C18.5 13.837 18.2366 13.2011 17.7678 12.7322C17.2989 12.2634 16.663 12 16 12V13.5L13.75 11.25L16 9ZM16 20V18.5C14.9391 18.5 13.9217 18.0786 13.1716 17.3284C12.4214 16.5783 12 15.5609 12 14.5C12 13.68 12.25 12.92 12.67 12.29L13.76 13.38C13.59 13.72 13.5 14.1 13.5 14.5C13.5 15.163 13.7634 15.7989 14.2322 16.2678C14.7011 16.7366 15.337 17 16 17V15.5L18.25 17.75L16 20Z" fill="white"/>
</svg>
