<svg width="18" height="18" viewBox="0 0 18 18" fill="none" xmlns="http://www.w3.org/2000/svg">
<path d="M9.06575 12.1134C10.5507 12.1134 11.7545 10.9162 11.7545 9.43938C11.7545 7.96257 10.5507 6.76538 9.06575 6.76538C7.58079 6.76538 6.377 7.96257 6.377 9.43938C6.377 10.9162 7.58079 12.1134 9.06575 12.1134Z" fill="black"/>
<path d="M8.96675 4.09473C8.8065 4.09473 8.646 4.09898 8.4855 4.10523C9.67725 4.14823 11.8922 4.63898 12.878 5.29623V9.37473C12.878 12.5642 10.1447 13.9272 8.4665 14.9207L8.5605 14.9762C8.68184 15.0537 8.82279 15.0948 8.96675 15.0948C9.1107 15.0948 9.25166 15.0537 9.373 14.9762C11.0312 13.9777 14.128 12.6237 14.128 9.37473V5.29623C13.0112 4.55148 11.065 4.09473 8.96675 4.09473Z" fill="#B1CC33"/>
<path d="M8.96675 4.09473C7.0375 4.09473 5.0575 4.55148 3.97425 5.29623V9.37473C3.97425 12.5055 6.96975 14.0285 8.5605 14.9762C8.68184 15.0537 8.8228 15.0948 8.96675 15.0948C9.11071 15.0948 9.25166 15.0537 9.373 14.9762C11.0313 13.9777 14.1283 12.6237 14.1283 9.37473V5.29623C13.0113 4.55148 11.065 4.09473 8.96675 4.09473ZM11.007 9.63473L11.244 10.1762C11.2586 10.2 11.2676 10.2268 11.2703 10.2545C11.273 10.2823 11.2693 10.3103 11.2596 10.3365C11.2498 10.3626 11.2341 10.3861 11.2138 10.4053C11.1935 10.4244 11.1691 10.4387 11.1425 10.447L10.584 10.7007C10.459 10.745 10.3558 10.836 10.2963 10.9547L10.0763 11.53C10.0537 11.5797 10.0135 11.6194 9.9635 11.6412C9.91345 11.6631 9.85708 11.6657 9.80525 11.6485L9.23 11.3947C9.10811 11.3611 8.97939 11.3611 8.8575 11.3947L8.316 11.6317C8.26637 11.6519 8.21096 11.6527 8.1608 11.6339C8.11063 11.6151 8.06938 11.5781 8.04525 11.5302L7.7915 10.9717C7.72959 10.8527 7.63587 10.7532 7.52075 10.6842L6.97925 10.4642C6.95159 10.4568 6.92582 10.4436 6.90364 10.4255C6.88146 10.4074 6.86337 10.3848 6.85057 10.3592C6.83776 10.3336 6.83053 10.3056 6.82936 10.2769C6.82818 10.2483 6.83309 10.2198 6.84375 10.1932L7.09775 9.61798C7.11725 9.55964 7.1243 9.49786 7.11844 9.43662C7.11258 9.37539 7.09395 9.31606 7.06375 9.26248L6.84375 8.70398C6.82431 8.64987 6.82569 8.59045 6.84764 8.53731C6.8696 8.48417 6.91054 8.44109 6.9625 8.41648L7.521 8.16248C7.6455 8.11748 7.74825 8.02648 7.8085 7.90873L8.0285 7.33323C8.03697 7.3087 8.05062 7.28628 8.06853 7.26749C8.08644 7.24871 8.10818 7.234 8.13228 7.22437C8.15638 7.21474 8.18227 7.21041 8.20819 7.21168C8.23411 7.21295 8.25946 7.21979 8.2825 7.23173L8.85775 7.48548C8.98473 7.53081 9.12439 7.5248 9.247 7.46873L9.7885 7.23173C9.81283 7.22055 9.83912 7.21429 9.86587 7.21328C9.89262 7.21227 9.9193 7.21654 9.9444 7.22585C9.9695 7.23516 9.99251 7.24933 10.0121 7.26754C10.0318 7.28575 10.0476 7.30764 10.0588 7.33198L10.0595 7.33323L10.3133 7.90873C10.364 8.01023 10.4318 8.16248 10.55 8.19623L11.1255 8.39948C11.2375 8.43698 11.298 8.55798 11.2608 8.67023L11.007 9.24548C10.9563 9.37028 10.9563 9.50992 11.007 9.63473Z" stroke="white" stroke-width="0.5"/>
</svg>
